<svg xmlns="http://www.w3.org/2000/svg" version="1.1" viewBox="-5.0 -10.0 110.0 135.0">
 <path d="m50 10c-22.059 0-40 17.941-40 40s17.941 40 40 40 40-17.941 40-40-17.941-40-40-40zm0 15.59c6.0117 0 10.891 4.8906 10.891 10.898 0 6.0117-4.8789 10.891-10.891 10.891s-10.891-4.8906-10.891-10.891 4.8789-10.898 10.891-10.898zm20.5 44.602c0 2.3203-1.8906 4.2188-4.2188 4.2188h-32.559c-2.3281 0-4.2188-1.8984-4.2188-4.2188v-3.5781c0-6.7383 5.4805-12.219 12.219-12.219h16.559c6.7383 0 12.219 5.4805 12.219 12.219z"/>
</svg>