<svg xmlns="http://www.w3.org/2000/svg" version="1.1" viewBox="-5.0 -10.0 110.0 135.0">
 <g>
  <path d="m26.5 11.801h37.398c1.1016 0 2-0.89844 2-2 0-1.1016-0.89844-2-2-2h-37.398c-1.1016 0-2 0.89844-2 2 0 1.0977 0.89844 2 2 2z"/>
  <path d="m67.898 80.5c-0.89844-0.89844-2.1992-0.80078-2.8984 0s-0.60156 2.1016 0.19922 2.8008l3.3008 2.8984h-32c-1.1016 0-2 0.89844-2 2 0 1.1016 0.89844 2 2 2h32l-3.3008 2.8984c-0.80078 0.69922-0.89844 2-0.19922 2.8008 0.39844 0.5 1 0.69922 1.5 0.69922s0.89844-0.19922 1.3008-0.5l7.3984-6.3984s1.5-1.3984 0.10156-2.8008z"/>
  <path d="m83.199 24.102c-1.1016 0.19922-1.8008 1.1992-1.6016 2.3008 0.19922 1.1016 0.30078 2.1992 0.30078 3.3984 0 9.8984-8.1016 18-18 18-1.1016 0-2 0.89844-2 2 0 1.1016 0.89844 2 2 2 12.102 0 22-9.8984 22-22 0-1.3984-0.10156-2.6992-0.30078-4-0.29688-1.1016-1.2969-1.9023-2.3984-1.6992z"/>
  <path d="m17.102 75.5c1.1016-0.19922 1.8008-1.1992 1.6016-2.3008-0.19922-1.1016-0.30078-2.1992-0.30078-3.3984 0-9.8984 8.1016-18 18-18 1.1016 0 2-0.89844 2-2 0-1.1016-0.89844-2-2-2-12.102 0-22 9.8984-22 22 0 1.3984 0.10156 2.6992 0.30078 4 0.19922 1 1 1.6992 2 1.6992h0.39844z"/>
  <path d="m5.8984 2.8008h14v14h-14z"/>
  <path d="m43 42.398h14v14h-14z"/>
  <path d="m70 4.8008h14v14h-14z"/>
  <path d="m15.699 79.602h14v14h-14z"/>
  <path d="m79.398 81.102h14v14h-14z"/>
 </g>
</svg>